<svg width="53" height="79" viewBox="0 0 53 79" fill="none" xmlns="http://www.w3.org/2000/svg">
<path d="M52.9999 0L47.4497 3.07151L18.2666 68.6224L23.8168 65.5509L52.9999 0Z" fill="white"/>
<path d="M35.9617 9.66821L30.6164 12.83L1.43335 78.3784L6.77862 75.2191L35.9617 9.66821Z" fill="white"/>
<path d="M50.9434 24.55L27.4667 30.9248L15.6612 34.1305L11.7065 40.3541L35.1808 33.9793L46.9863 30.7736L50.9434 24.55Z" fill="white"/>
<path d="M9.4035 58.0708C3.10434 53.033 -1.72128 44.7675 0.586621 33.7159C3.30683 20.6857 17.3031 15.3112 18.6424 14.8208C16.3321 15.8698 14.3462 17.0067 12.5677 18.6242C12.0554 19.0902 9.62307 21.3542 7.72503 25.3186C6.90531 27.0288 3.07994 35.0284 6.46617 43.794C7.14927 45.5652 9.06683 48.7099 12.3457 51.7717" fill="white"/>
<path d="M28.0742 42.0644L41.0458 12.9302L35.4956 16.0017L23.3193 43.355L28.0742 42.0644Z" fill="white"/>
</svg>
